<svg width="79" height="92" viewBox="0 0 79 92" fill="none" xmlns="http://www.w3.org/2000/svg">
<path d="M68.4858 9H11.4858C9.82899 9 8.48584 7.65685 8.48584 6C8.48584 4.34315 9.82899 3 11.4858 3H68.4858C70.1427 3 71.4858 4.34315 71.4858 6C71.4858 7.65685 70.1427 9 68.4858 9Z" fill="#4A2A08"/>
<circle cx="72.9858" cy="5.5" r="5.5" fill="url(#paint0_linear_198_2203)"/>
<circle cx="72.9858" cy="5.5" r="5.5" fill="url(#paint1_linear_198_2203)"/>
<g filter="url(#filter0_d_198_2203)">
<circle cx="73.9858" cy="4.5" r="4.5" fill="url(#paint2_linear_198_2203)" shape-rendering="crispEdges"/>
</g>
<circle cx="5.5" cy="5.5" r="5.5" transform="matrix(-1 0 0 1 12.4858 0)" fill="url(#paint3_linear_198_2203)"/>
<circle cx="5.5" cy="5.5" r="5.5" transform="matrix(-1 0 0 1 12.4858 0)" fill="url(#paint4_linear_198_2203)"/>
<g filter="url(#filter1_d_198_2203)">
<circle cx="4.5" cy="4.5" r="4.5" transform="matrix(-1 0 0 1 10.4858 0)" fill="url(#paint5_linear_198_2203)" shape-rendering="crispEdges"/>
</g>
<path d="M5.60742 54.3463L12.6103 12.4297C13.423 7.56483 17.6329 4 22.5651 4H40.7542H58.6205C63.6931 4 67.9777 7.7651 68.6296 12.7957L74.0142 54.3463L40.7542 88.1067L5.60742 54.3463Z" fill="url(#paint6_linear_198_2203)"/>
<g filter="url(#filter2_dd_198_2203)">
<path d="M11.2144 53.4696L16.8254 20.2613C17.646 15.4049 21.852 11.85 26.7772 11.85H40.5993H54.0957C59.1628 11.85 63.4444 15.607 64.1029 20.6312L68.4069 53.4696L40.5993 81.3782L11.2144 53.4696Z" fill="url(#paint7_linear_198_2203)"/>
</g>
<g filter="url(#filter3_f_198_2203)">
<path d="M4.48584 53.8913L10.9147 13.623C11.6966 8.72521 15.9214 5.1214 20.8813 5.1214H42.6142C49.9035 29.232 16.2608 28.6713 24.1107 44.3712C33.55 63.2498 40.8857 61.6326 38.9119 68.9062C36.9381 76.1797 34.0612 79.0505 38.9119 86.9852L4.48584 53.8913Z" fill="url(#paint8_linear_198_2203)" fill-opacity="0.19"/>
</g>
<path d="M40.6774 65.3724L41.8447 68.9651H45.6222L42.5661 71.1855L43.7334 74.7781L40.6774 72.5577L37.6213 74.7781L38.7886 71.1855L35.7325 68.9651H39.51L40.6774 65.3724Z" fill="url(#paint9_linear_198_2203)"/>
<path d="M30.2787 61.9062L31.0569 64.3013H33.5753L31.5379 65.7815L32.3161 68.1766L30.2787 66.6964L28.2413 68.1766L29.0195 65.7815L26.9821 64.3013H29.5005L30.2787 61.9062Z" fill="url(#paint10_linear_198_2203)"/>
<path d="M24.2129 56.7068L24.7966 58.5032H26.6854L25.1573 59.6134L25.741 61.4097L24.2129 60.2995L22.6849 61.4097L23.2686 59.6134L21.7405 58.5032H23.6293L24.2129 56.7068Z" fill="url(#paint11_linear_198_2203)"/>
<path d="M49.3429 61.9062L48.5647 64.3013H46.0463L48.0837 65.7815L47.3055 68.1766L49.3429 66.6964L51.3803 68.1766L50.602 65.7815L52.6394 64.3013H50.1211L49.3429 61.9062Z" fill="url(#paint12_linear_198_2203)"/>
<path d="M55.4086 56.7068L54.825 58.5032H52.9362L54.4643 59.6134L53.8806 61.4097L55.4086 60.2995L56.9367 61.4097L56.353 59.6134L57.8811 58.5032H55.9923L55.4086 56.7068Z" fill="url(#paint13_linear_198_2203)"/>
<g filter="url(#filter4_d_198_2203)">
<path d="M23.8858 50.24C23.0218 50.24 22.2298 50.024 21.5098 49.592C20.8058 49.144 20.2378 48.56 19.8058 47.84C19.3738 47.104 19.1578 46.296 19.1578 45.416L19.1818 37.808C19.1818 36.928 19.3898 36.128 19.8058 35.408C20.2378 34.688 20.8138 34.112 21.5338 33.68C22.2538 33.248 23.0378 33.032 23.8858 33.032C24.7498 33.032 25.5338 33.248 26.2378 33.68C26.9418 34.112 27.5018 34.688 27.9178 35.408C28.3498 36.128 28.5658 36.928 28.5658 37.808L28.5898 45.416C28.5898 46.296 28.3738 47.104 27.9418 47.84C27.5258 48.56 26.9578 49.144 26.2378 49.592C25.5338 50.024 24.7498 50.24 23.8858 50.24ZM23.8858 47.336C24.3658 47.336 24.7818 47.144 25.1338 46.76C25.5018 46.36 25.6858 45.912 25.6858 45.416L25.6618 37.808C25.6618 37.28 25.4938 36.832 25.1578 36.464C24.8218 36.096 24.3978 35.912 23.8858 35.912C23.3898 35.912 22.9658 36.096 22.6138 36.464C22.2618 36.816 22.0858 37.264 22.0858 37.808V45.416C22.0858 45.944 22.2618 46.4 22.6138 46.784C22.9658 47.152 23.3898 47.336 23.8858 47.336ZM30.5346 50C30.4546 50 30.4146 49.96 30.4146 49.88L30.4626 33.392C30.4626 33.328 30.4946 33.296 30.5586 33.296H35.1666C36.6386 33.296 37.7986 33.744 38.6466 34.64C39.5106 35.536 39.9426 36.752 39.9426 38.288C39.9426 39.424 39.7186 40.408 39.2706 41.24C38.8226 42.072 38.2386 42.712 37.5186 43.16C36.7986 43.608 36.0146 43.832 35.1666 43.832H33.3426V49.88C33.3426 49.96 33.3026 50 33.2226 50H30.5346ZM33.3426 40.928H35.1666C35.6786 40.928 36.1186 40.688 36.4866 40.208C36.8706 39.712 37.0626 39.072 37.0626 38.288C37.0626 37.664 36.8946 37.152 36.5586 36.752C36.2226 36.352 35.7586 36.152 35.1666 36.152L33.3426 36.176V40.928ZM41.4793 50C41.4153 50 41.3833 49.96 41.3833 49.88L41.4073 33.392C41.4073 33.328 41.4393 33.296 41.5033 33.296H49.2073C49.2713 33.296 49.3033 33.336 49.3033 33.416V36.104C49.3033 36.168 49.2713 36.2 49.2073 36.2H44.2873V39.944H49.2073C49.2713 39.944 49.3033 39.976 49.3033 40.04L49.3273 42.752C49.3273 42.816 49.2953 42.848 49.2313 42.848H44.2873V47.048H49.2313C49.2953 47.048 49.3273 47.088 49.3273 47.168V49.904C49.3273 49.968 49.2953 50 49.2313 50H41.4793ZM51.6775 50C51.5495 50 51.4855 49.944 51.4855 49.832L51.4615 33.488C51.4615 33.36 51.5255 33.296 51.6535 33.296H53.8135L57.8695 42.752L57.7495 33.488C57.7495 33.36 57.8215 33.296 57.9655 33.296H60.3415C60.4375 33.296 60.4855 33.36 60.4855 33.488L60.5095 49.856C60.5095 49.952 60.4695 50 60.3895 50H58.2775L54.1255 41.168L54.2935 49.808C54.2935 49.936 54.2215 50 54.0775 50H51.6775Z" fill="url(#paint14_linear_198_2203)"/>
</g>
<path d="M29.9937 24.1194C29.5638 24.1194 29.1697 24.0119 28.8114 23.797C28.4611 23.5741 28.1785 23.2835 27.9635 22.9252C27.7565 22.559 27.653 22.1569 27.653 21.719V21.1697C27.653 21.1298 27.6729 21.1099 27.7127 21.1099H29.0503C29.0821 21.1099 29.0981 21.1298 29.0981 21.1697V21.719C29.0981 21.9817 29.1856 22.2086 29.3608 22.3997C29.5359 22.5828 29.7469 22.6744 29.9937 22.6744C30.2405 22.6744 30.4515 22.5789 30.6267 22.3878C30.8018 22.1967 30.8894 21.9738 30.8894 21.719C30.8894 21.4244 30.6983 21.1697 30.3162 20.9547C30.1888 20.883 29.9898 20.7716 29.7191 20.6203C29.4484 20.469 29.1936 20.3257 28.9548 20.1904C28.5169 19.9356 28.1904 19.6171 27.9755 19.235C27.7685 18.8449 27.665 18.407 27.665 17.9213C27.665 17.4755 27.7725 17.0774 27.9874 16.7271C28.2024 16.3688 28.485 16.0862 28.8353 15.8792C29.1936 15.6722 29.5797 15.5687 29.9937 15.5687C30.4157 15.5687 30.8018 15.6762 31.1522 15.8911C31.5104 16.0981 31.7931 16.3808 32.0001 16.739C32.215 17.0893 32.3225 17.4834 32.3225 17.9213V18.9006C32.3225 18.9324 32.3066 18.9484 32.2747 18.9484H30.9372C30.9053 18.9484 30.8894 18.9324 30.8894 18.9006L30.8775 17.9213C30.8775 17.6427 30.7899 17.4158 30.6147 17.2406C30.4396 17.0655 30.2326 16.9779 29.9937 16.9779C29.7469 16.9779 29.5359 17.0734 29.3608 17.2645C29.1856 17.4476 29.0981 17.6666 29.0981 17.9213C29.0981 18.1841 29.1538 18.403 29.2653 18.5782C29.3767 18.7533 29.5797 18.9205 29.8743 19.0797C29.9141 19.1036 29.9898 19.1474 30.1012 19.2111C30.2206 19.2668 30.348 19.3345 30.4834 19.4141C30.6187 19.4858 30.7381 19.5495 30.8416 19.6052C30.9531 19.6609 31.0208 19.6968 31.0447 19.7127C31.4427 19.9356 31.7572 20.2103 31.9881 20.5367C32.219 20.8552 32.3344 21.2493 32.3344 21.719C32.3344 22.1728 32.227 22.5828 32.012 22.9491C31.805 23.3073 31.5224 23.594 31.1641 23.8089C30.8138 24.0159 30.4237 24.1194 29.9937 24.1194ZM33.2128 24C33.1809 24 33.165 23.9801 33.165 23.9403L33.1769 15.7478C33.1769 15.708 33.1968 15.6881 33.2367 15.6881H34.5623C34.6021 15.6881 34.622 15.708 34.622 15.7478L34.61 22.5311H37.0702C37.11 22.5311 37.1299 22.551 37.1299 22.5908V23.9403C37.1299 23.9801 37.11 24 37.0702 24H33.2128ZM39.9577 24.1194C39.5278 24.1194 39.1337 24.0119 38.7754 23.797C38.4251 23.5741 38.1425 23.2835 37.9275 22.9252C37.7125 22.559 37.605 22.1569 37.605 21.719L37.617 17.9333C37.617 17.4954 37.7205 17.0973 37.9275 16.739C38.1425 16.3808 38.4291 16.0941 38.7873 15.8792C39.1456 15.6642 39.5357 15.5567 39.9577 15.5567C40.3876 15.5567 40.7777 15.6642 41.1281 15.8792C41.4784 16.0941 41.757 16.3808 41.964 16.739C42.179 17.0973 42.2865 17.4954 42.2865 17.9333L42.2984 21.719C42.2984 22.1569 42.1909 22.559 41.976 22.9252C41.769 23.2835 41.4863 23.5741 41.1281 23.797C40.7777 24.0119 40.3876 24.1194 39.9577 24.1194ZM39.9577 22.6744C40.1965 22.6744 40.4035 22.5789 40.5787 22.3878C40.7618 22.1887 40.8534 21.9658 40.8534 21.719L40.8414 17.9333C40.8414 17.6705 40.7578 17.4476 40.5906 17.2645C40.4235 17.0814 40.2125 16.9898 39.9577 16.9898C39.7109 16.9898 39.4999 17.0814 39.3248 17.2645C39.1496 17.4397 39.062 17.6626 39.062 17.9333V21.719C39.062 21.9817 39.1496 22.2086 39.3248 22.3997C39.4999 22.5828 39.7109 22.6744 39.9577 22.6744ZM44.249 24C44.2172 24 44.2013 23.9801 44.2013 23.9403V17.1331H42.6487C42.6089 17.1331 42.589 17.1132 42.589 17.0734L42.601 15.7359C42.601 15.704 42.6169 15.6881 42.6487 15.6881H47.1869C47.2267 15.6881 47.2466 15.704 47.2466 15.7359V17.0734C47.2466 17.1132 47.2306 17.1331 47.1988 17.1331H45.6343L45.6463 23.9403C45.6463 23.9801 45.6304 24 45.5985 24H44.249ZM49.8083 24.1194C49.3784 24.1194 48.9843 24.0119 48.626 23.797C48.2757 23.5741 47.9931 23.2835 47.7781 22.9252C47.5711 22.559 47.4676 22.1569 47.4676 21.719V21.1697C47.4676 21.1298 47.4875 21.1099 47.5273 21.1099H48.8649C48.8967 21.1099 48.9126 21.1298 48.9126 21.1697V21.719C48.9126 21.9817 49.0002 22.2086 49.1754 22.3997C49.3505 22.5828 49.5615 22.6744 49.8083 22.6744C50.0551 22.6744 50.2661 22.5789 50.4412 22.3878C50.6164 22.1967 50.704 21.9738 50.704 21.719C50.704 21.4244 50.5129 21.1697 50.1307 20.9547C50.0034 20.883 49.8043 20.7716 49.5336 20.6203C49.2629 20.469 49.0082 20.3257 48.7693 20.1904C48.3314 19.9356 48.005 19.6171 47.79 19.235C47.583 18.8449 47.4795 18.407 47.4795 17.9213C47.4795 17.4755 47.587 17.0774 47.802 16.7271C48.0169 16.3688 48.2996 16.0862 48.6499 15.8792C49.0082 15.6722 49.3943 15.5687 49.8083 15.5687C50.2303 15.5687 50.6164 15.6762 50.9667 15.8911C51.325 16.0981 51.6076 16.3808 51.8146 16.739C52.0296 17.0893 52.1371 17.4834 52.1371 17.9213V18.9006C52.1371 18.9324 52.1211 18.9484 52.0893 18.9484H50.7517C50.7199 18.9484 50.704 18.9324 50.704 18.9006L50.692 17.9213C50.692 17.6427 50.6045 17.4158 50.4293 17.2406C50.2541 17.0655 50.0471 16.9779 49.8083 16.9779C49.5615 16.9779 49.3505 17.0734 49.1754 17.2645C49.0002 17.4476 48.9126 17.6666 48.9126 17.9213C48.9126 18.1841 48.9684 18.403 49.0798 18.5782C49.1913 18.7533 49.3943 18.9205 49.6889 19.0797C49.7287 19.1036 49.8043 19.1474 49.9158 19.2111C50.0352 19.2668 50.1626 19.3345 50.2979 19.4141C50.4333 19.4858 50.5527 19.5495 50.6562 19.6052C50.7677 19.6609 50.8353 19.6968 50.8592 19.7127C51.2573 19.9356 51.5718 20.2103 51.8027 20.5367C52.0336 20.8552 52.149 21.2493 52.149 21.719C52.149 22.1728 52.0415 22.5828 51.8266 22.9491C51.6196 23.3073 51.3369 23.594 50.9787 23.8089C50.6283 24.0159 50.2382 24.1194 49.8083 24.1194Z" fill="white"/>
<defs>
<filter id="filter0_d_198_2203" x="68.7858" y="0" width="9.7" height="9.7" filterUnits="userSpaceOnUse" color-interpolation-filters="sRGB">
<feFlood flood-opacity="0" result="BackgroundImageFix"/>
<feColorMatrix in="SourceAlpha" type="matrix" values="0 0 0 0 0 0 0 0 0 0 0 0 0 0 0 0 0 0 127 0" result="hardAlpha"/>
<feOffset dx="-0.7" dy="0.7"/>
<feComposite in2="hardAlpha" operator="out"/>
<feColorMatrix type="matrix" values="0 0 0 0 0 0 0 0 0 0 0 0 0 0 0 0 0 0 0.13 0"/>
<feBlend mode="normal" in2="BackgroundImageFix" result="effect1_dropShadow_198_2203"/>
<feBlend mode="normal" in="SourceGraphic" in2="effect1_dropShadow_198_2203" result="shape"/>
</filter>
<filter id="filter1_d_198_2203" x="1.48584" y="0" width="9.7" height="9.7" filterUnits="userSpaceOnUse" color-interpolation-filters="sRGB">
<feFlood flood-opacity="0" result="BackgroundImageFix"/>
<feColorMatrix in="SourceAlpha" type="matrix" values="0 0 0 0 0 0 0 0 0 0 0 0 0 0 0 0 0 0 127 0" result="hardAlpha"/>
<feOffset dx="0.7" dy="0.7"/>
<feComposite in2="hardAlpha" operator="out"/>
<feColorMatrix type="matrix" values="0 0 0 0 0 0 0 0 0 0 0 0 0 0 0 0 0 0 0.13 0"/>
<feBlend mode="normal" in2="BackgroundImageFix" result="effect1_dropShadow_198_2203"/>
<feBlend mode="normal" in="SourceGraphic" in2="effect1_dropShadow_198_2203" result="shape"/>
</filter>
<filter id="filter2_dd_198_2203" x="6.72867" y="6.24286" width="66.1638" height="84.1067" filterUnits="userSpaceOnUse" color-interpolation-filters="sRGB">
<feFlood flood-opacity="0" result="BackgroundImageFix"/>
<feColorMatrix in="SourceAlpha" type="matrix" values="0 0 0 0 0 0 0 0 0 0 0 0 0 0 0 0 0 0 127 0" result="hardAlpha"/>
<feOffset dy="-1.12142"/>
<feGaussianBlur stdDeviation="2.24285"/>
<feComposite in2="hardAlpha" operator="out"/>
<feColorMatrix type="matrix" values="0 0 0 0 0 0 0 0 0 0 0 0 0 0 0 0 0 0 0.25 0"/>
<feBlend mode="normal" in2="BackgroundImageFix" result="effect1_dropShadow_198_2203"/>
<feColorMatrix in="SourceAlpha" type="matrix" values="0 0 0 0 0 0 0 0 0 0 0 0 0 0 0 0 0 0 127 0" result="hardAlpha"/>
<feOffset dy="4.48569"/>
<feGaussianBlur stdDeviation="2.24285"/>
<feComposite in2="hardAlpha" operator="out"/>
<feColorMatrix type="matrix" values="0 0 0 0 0 0 0 0 0 0 0 0 0 0 0 0 0 0 0.25 0"/>
<feBlend mode="normal" in2="effect1_dropShadow_198_2203" result="effect2_dropShadow_198_2203"/>
<feBlend mode="normal" in="SourceGraphic" in2="effect2_dropShadow_198_2203" result="shape"/>
</filter>
<filter id="filter3_f_198_2203" x="0.000149727" y="0.635709" width="48.1413" height="90.8352" filterUnits="userSpaceOnUse" color-interpolation-filters="sRGB">
<feFlood flood-opacity="0" result="BackgroundImageFix"/>
<feBlend mode="normal" in="SourceGraphic" in2="BackgroundImageFix" result="shape"/>
<feGaussianBlur stdDeviation="2.24285" result="effect1_foregroundBlur_198_2203"/>
</filter>
<filter id="filter4_d_198_2203" x="19.1577" y="33.032" width="41.3516" height="19.4467" filterUnits="userSpaceOnUse" color-interpolation-filters="sRGB">
<feFlood flood-opacity="0" result="BackgroundImageFix"/>
<feColorMatrix in="SourceAlpha" type="matrix" values="0 0 0 0 0 0 0 0 0 0 0 0 0 0 0 0 0 0 127 0" result="hardAlpha"/>
<feOffset dy="2.23866"/>
<feComposite in2="hardAlpha" operator="out"/>
<feColorMatrix type="matrix" values="0 0 0 0 0 0 0 0 0 0 0 0 0 0 0 0 0 0 0.25 0"/>
<feBlend mode="normal" in2="BackgroundImageFix" result="effect1_dropShadow_198_2203"/>
<feBlend mode="normal" in="SourceGraphic" in2="effect1_dropShadow_198_2203" result="shape"/>
</filter>
<linearGradient id="paint0_linear_198_2203" x1="76.9858" y1="1.5" x2="68.4858" y2="7" gradientUnits="userSpaceOnUse">
<stop stop-color="#EACE2C"/>
<stop offset="1" stop-color="#E6B51B"/>
</linearGradient>
<linearGradient id="paint1_linear_198_2203" x1="76.9858" y1="1.5" x2="68.4858" y2="7" gradientUnits="userSpaceOnUse">
<stop stop-color="#FBF9E9" stop-opacity="0.9"/>
<stop offset="1" stop-color="#E6B51B" stop-opacity="0"/>
</linearGradient>
<linearGradient id="paint2_linear_198_2203" x1="77.2586" y1="1.22727" x2="70.304" y2="5.72727" gradientUnits="userSpaceOnUse">
<stop stop-color="#FBF9E9" stop-opacity="0.9"/>
<stop offset="1" stop-color="#E6B51B"/>
</linearGradient>
<linearGradient id="paint3_linear_198_2203" x1="9.5" y1="1.5" x2="1" y2="7" gradientUnits="userSpaceOnUse">
<stop stop-color="#EACE2C"/>
<stop offset="1" stop-color="#E6B51B"/>
</linearGradient>
<linearGradient id="paint4_linear_198_2203" x1="9.5" y1="1.5" x2="1" y2="7" gradientUnits="userSpaceOnUse">
<stop stop-color="#FBF9E9" stop-opacity="0.9"/>
<stop offset="1" stop-color="#E6B51B" stop-opacity="0"/>
</linearGradient>
<linearGradient id="paint5_linear_198_2203" x1="7.77273" y1="1.22727" x2="0.818182" y2="5.72727" gradientUnits="userSpaceOnUse">
<stop stop-color="#FBF9E9" stop-opacity="0.9"/>
<stop offset="1" stop-color="#E6B51B"/>
</linearGradient>
<linearGradient id="paint6_linear_198_2203" x1="39.8108" y1="4" x2="40.9877" y2="88.1064" gradientUnits="userSpaceOnUse">
<stop stop-color="#FCAA11"/>
<stop offset="1" stop-color="#ED5904"/>
</linearGradient>
<linearGradient id="paint7_linear_198_2203" x1="39.8106" y1="11.85" x2="40.7726" y2="81.3783" gradientUnits="userSpaceOnUse">
<stop stop-color="#FCAA11"/>
<stop offset="1" stop-color="#ED5904"/>
</linearGradient>
<linearGradient id="paint8_linear_198_2203" x1="-1.12127" y1="46.614" x2="28.0357" y2="46.61" gradientUnits="userSpaceOnUse">
<stop stop-color="#A74602"/>
<stop offset="1" stop-color="#FFD981"/>
</linearGradient>
<linearGradient id="paint9_linear_198_2203" x1="40.6774" y1="65.3724" x2="40.6774" y2="75.7711" gradientUnits="userSpaceOnUse">
<stop offset="0.480769" stop-color="#EAC03E"/>
<stop offset="1" stop-color="white"/>
</linearGradient>
<linearGradient id="paint10_linear_198_2203" x1="30.2787" y1="61.9062" x2="30.2787" y2="68.8386" gradientUnits="userSpaceOnUse">
<stop offset="0.480769" stop-color="#EAC03E"/>
<stop offset="1" stop-color="white"/>
</linearGradient>
<linearGradient id="paint11_linear_198_2203" x1="24.2129" y1="56.7068" x2="24.2129" y2="61.9062" gradientUnits="userSpaceOnUse">
<stop offset="0.480769" stop-color="#EAC03E"/>
<stop offset="1" stop-color="white"/>
</linearGradient>
<linearGradient id="paint12_linear_198_2203" x1="49.3429" y1="61.9062" x2="49.3429" y2="68.8386" gradientUnits="userSpaceOnUse">
<stop offset="0.480769" stop-color="#EAC03E"/>
<stop offset="1" stop-color="white"/>
</linearGradient>
<linearGradient id="paint13_linear_198_2203" x1="55.4086" y1="56.7068" x2="55.4086" y2="61.9062" gradientUnits="userSpaceOnUse">
<stop offset="0.480769" stop-color="#EAC03E"/>
<stop offset="1" stop-color="white"/>
</linearGradient>
<linearGradient id="paint14_linear_198_2203" x1="40.6473" y1="41.7629" x2="40.5109" y2="57.0002" gradientUnits="userSpaceOnUse">
<stop stop-color="white"/>
<stop offset="1" stop-color="white"/>
</linearGradient>
</defs>
</svg>

